<?xml version="1.0" encoding="UTF-8" standalone="no"?>
<!-- Created with Inkscape (http://www.inkscape.org/) -->

<svg
   xmlns:dc="http://purl.org/dc/elements/1.1/"
   xmlns:cc="http://creativecommons.org/ns#"
   xmlns:rdf="http://www.w3.org/1999/02/22-rdf-syntax-ns#"
   xmlns:svg="http://www.w3.org/2000/svg"
   xmlns="http://www.w3.org/2000/svg"
   xmlns:sodipodi="http://sodipodi.sourceforge.net/DTD/sodipodi-0.dtd"
   xmlns:inkscape="http://www.inkscape.org/namespaces/inkscape"
   width="150"
   height="150"
   id="svg4863"
   version="1.1"
   inkscape:version="0.48.5 r10040"
   sodipodi:docname="badge-icon-python.svg">
  <defs
     id="defs4865" />
  <sodipodi:namedview
     id="base"
     pagecolor="#ffffff"
     bordercolor="#666666"
     borderopacity="1.0"
     inkscape:pageopacity="0.0"
     inkscape:pageshadow="2"
     inkscape:zoom="1.979899"
     inkscape:cx="-15.953944"
     inkscape:cy="40.479053"
     inkscape:document-units="px"
     inkscape:current-layer="layer1"
     showgrid="false"
     inkscape:showpageshadow="false"
     inkscape:window-width="1704"
     inkscape:window-height="1361"
     inkscape:window-x="1921"
     inkscape:window-y="887"
     inkscape:window-maximized="0" />
  <metadata
     id="metadata4868">
    <rdf:RDF>
      <cc:Work
         rdf:about="">
        <dc:format>image/svg+xml</dc:format>
        <dc:type
           rdf:resource="http://purl.org/dc/dcmitype/StillImage" />
        <dc:title></dc:title>
      </cc:Work>
    </rdf:RDF>
  </metadata>
  <g
     inkscape:label="Layer 1"
     inkscape:groupmode="layer"
     id="layer1"
     transform="translate(0,-902.3622)">
    <g
       id="g10909"
       transform="matrix(0.32608696,0,0,0.32608696,62.888188,689.16952)">
      <path
         style="fill:#387eb8;fill-opacity:1;display:inline"
         inkscape:connector-curvature="0"
         id="path101"
         d="M 37.142857,773.79077 H -142.85714 c 0,0 -50,0 -50,110 0,110 50,110 50,110 h 49.999997 c 0,0 0,-10 0,-50 0,-40 30,-70 70,-70 40,0 89.86755,0 119.93377,0 30.066233,0 50.066233,-20 50.480143,-50.4801 0.4139,-30.4802 -0.41391,-119.5199 -0.41391,-119.5199 0,0 0,-50 -110.000003,-50 -110,0 -110,50 -110,50 v 50 h 110 z" />
      <path
         style="fill:#ffc331;fill-opacity:1;display:inline"
         inkscape:connector-curvature="0"
         id="path102"
         d="M 37.142857,993.79077 H 217.14286 c 0,0 50,0 50,-110 0,-110 -50,-110 -50,-110 h -50 c 0,0 0,10 0,50 0,40 -30,70 -70.000003,70 -40,0 -89.9999999,0 -120,0 -30,0 -50,20 -50,50 0,30 0,120.00003 0,120.00003 0,0 0,50 110,50 110.000003,0 110.000003,-50 110.000003,-50 v -50 H 37.142857 z" />
      <circle
         sodipodi:ry="20"
         sodipodi:rx="20"
         sodipodi:cy="120"
         sodipodi:cx="240"
         style="fill:#ffffff;fill-opacity:1;display:inline"
         r="20"
         cy="120"
         cx="240"
         id="path103"
         transform="translate(-262.85714,583.79077)"
         d="m 260,120 c 0,11.04569 -8.95431,20 -20,20 -11.04569,0 -20,-8.95431 -20,-20 0,-11.04569 8.95431,-20 20,-20 11.04569,0 20,8.95431 20,20 z" />
      <circle
         sodipodi:ry="20"
         sodipodi:rx="20"
         sodipodi:cy="480"
         sodipodi:cx="360"
         style="fill:#ffffff;fill-opacity:1;display:inline"
         r="20"
         cy="480"
         cx="360"
         id="path104"
         transform="translate(-262.85714,583.79077)"
         d="m 380,480 c 0,11.04569 -8.95431,20 -20,20 -11.04569,0 -20,-8.95431 -20,-20 0,-11.04569 8.95431,-20 20,-20 11.04569,0 20,8.95431 20,20 z" />
    </g>
  </g>
</svg>
