<?xml version="1.0" encoding="UTF-8" standalone="no"?>
<!-- Created with Inkscape (http://www.inkscape.org/) -->

<svg
   xmlns:dc="http://purl.org/dc/elements/1.1/"
   xmlns:cc="http://creativecommons.org/ns#"
   xmlns:rdf="http://www.w3.org/1999/02/22-rdf-syntax-ns#"
   xmlns:svg="http://www.w3.org/2000/svg"
   xmlns="http://www.w3.org/2000/svg"
   xmlns:xlink="http://www.w3.org/1999/xlink"
   xmlns:sodipodi="http://sodipodi.sourceforge.net/DTD/sodipodi-0.dtd"
   xmlns:inkscape="http://www.inkscape.org/namespaces/inkscape"
   width="500"
   height="500"
   viewBox="0 0 500 500.00001"
   id="svg3476"
   version="1.1"
   inkscape:version="0.48.5 r10040"
   sodipodi:docname="logo-mongodb-leaf.svg">
  <defs
     id="defs3478">
    <clipPath
       id="e">
      <path
         inkscape:connector-curvature="0"
         d="m 241.066,225.953 c -0.707,0.07 -1.398,0.29 -2.035,0.652 l -42.01,24.247 45.3,82.51 c 0.63,-0.09 1.25,-0.3 1.81,-0.624 l 42.13,-24.336 c 1.3,-0.754 2.19,-2.03 2.46,-3.476 l -46.18,-78.89 c -0.34,-0.067 -0.68,-0.102 -1.03,-0.102 -0.14,0 -0.28,0.007 -0.42,0.02"
         id="path4431" />
    </clipPath>
    <linearGradient
       id="f"
       x1="0.043000001"
       x2="0.98400003"
       gradientTransform="matrix(97.417,0,0,97.417,192.862,279.652)"
       gradientUnits="userSpaceOnUse">
      <stop
         offset=".16"
         stop-color="#6BBF47"
         id="stop4434" />
      <stop
         offset=".38"
         stop-color="#79B461"
         id="stop4436" />
      <stop
         offset=".47"
         stop-color="#75AC64"
         id="stop4438" />
      <stop
         offset=".7"
         stop-color="#659E5A"
         id="stop4440" />
      <stop
         offset=".9"
         stop-color="#3E863D"
         id="stop4442" />
    </linearGradient>
    <clipPath
       id="c">
      <path
         inkscape:connector-curvature="0"
         d="m 195.398,307.086 c 0.403,0.523 0.907,0.976 1.5,1.316 l 36.14,20.875 6.02,3.46 c 0.9,0.52 1.926,0.74 2.934,0.665 0.336,-0.027 0.672,-0.09 1,-0.183 l 44.434,-81.36 c -0.34,-0.37 -0.738,-0.68 -1.184,-0.94 l -27.586,-15.93 -14.582,-8.39 c -0.414,-0.24 -0.863,-0.41 -1.32,-0.53 z m 0,0"
         id="path4421" />
    </clipPath>
    <linearGradient
       id="d"
       x1="-0.456"
       x2="0.58200002"
       gradientTransform="matrix(106.8057,-78.916731,78.916731,106.8057,235.18824,285.39477)"
       gradientUnits="userSpaceOnUse">
      <stop
         offset=".57"
         stop-color="#3E863D"
         id="stop4424" />
      <stop
         offset=".72"
         stop-color="#619857"
         id="stop4426" />
      <stop
         offset="1"
         stop-color="#76AC64"
         id="stop4428" />
    </linearGradient>
    <clipPath
       id="a">
      <path
         inkscape:connector-curvature="0"
         d="m 239.03,226.605 -42.13,24.317 c -1.578,0.91 -2.546,2.59 -2.546,4.406 v 48.668 c 0,1.817 0.968,3.496 2.546,4.406 l 42.133,24.336 c 1.575,0.907 3.517,0.907 5.09,0 l 42.126,-24.336 c 1.57,-0.91 2.54,-2.59 2.54,-4.406 v -48.668 c 0,-1.816 -0.97,-3.496 -2.55,-4.406 l -42.12,-24.317 c -0.79,-0.453 -1.67,-0.68 -2.55,-0.68 -0.88,0 -1.76,0.227 -2.55,0.68"
         id="path4411" />
    </clipPath>
    <linearGradient
       id="b"
       x1="-0.34799999"
       x2="1.251"
       gradientTransform="matrix(-38.064915,77.652126,-77.652126,-38.064915,258.72325,244.62943)"
       gradientUnits="userSpaceOnUse">
      <stop
         offset=".3"
         stop-color="#3E863D"
         id="stop4414" />
      <stop
         offset=".5"
         stop-color="#55934F"
         id="stop4416" />
      <stop
         offset=".8"
         stop-color="#5AAD45"
         id="stop4418" />
    </linearGradient>
    <linearGradient
       inkscape:collect="always"
       xlink:href="#b"
       id="linearGradient4585"
       gradientUnits="userSpaceOnUse"
       gradientTransform="matrix(-38.064915,77.652126,-77.652126,-38.064915,258.72325,244.62943)"
       x1="-0.34799999"
       x2="1.251" />
    <linearGradient
       inkscape:collect="always"
       xlink:href="#d"
       id="linearGradient4587"
       gradientUnits="userSpaceOnUse"
       gradientTransform="matrix(106.8057,-78.916731,78.916731,106.8057,235.18824,285.39477)"
       x1="-0.456"
       x2="0.58200002" />
    <linearGradient
       inkscape:collect="always"
       xlink:href="#f"
       id="linearGradient4589"
       gradientUnits="userSpaceOnUse"
       gradientTransform="matrix(97.417,0,0,97.417,192.862,279.652)"
       x1="0.043000001"
       x2="0.98400003" />
  </defs>
  <sodipodi:namedview
     id="base"
     pagecolor="#ffffff"
     bordercolor="#666666"
     borderopacity="1.0"
     inkscape:pageopacity="0.0"
     inkscape:pageshadow="2"
     inkscape:zoom="0.7"
     inkscape:cx="256.48488"
     inkscape:cy="153.21985"
     inkscape:document-units="px"
     inkscape:current-layer="layer1"
     showgrid="false"
     fit-margin-top="0"
     fit-margin-left="0"
     fit-margin-right="0"
     fit-margin-bottom="0"
     inkscape:window-width="3440"
     inkscape:window-height="1377"
     inkscape:window-x="1912"
     inkscape:window-y="-8"
     inkscape:window-maximized="1"
     inkscape:showpageshadow="false"
     showborder="true" />
  <metadata
     id="metadata3481">
    <rdf:RDF>
      <cc:Work
         rdf:about="">
        <dc:format>image/svg+xml</dc:format>
        <dc:type
           rdf:resource="http://purl.org/dc/dcmitype/StillImage" />
        <dc:title></dc:title>
      </cc:Work>
    </rdf:RDF>
  </metadata>
  <g
     inkscape:label="Calque 1"
     inkscape:groupmode="layer"
     id="layer1"
     transform="translate(-193.633,-288.36217)">
    <rect
       style="fill:#ffffff;fill-opacity:0;stroke:none"
       id="rect3059"
       width="500"
       height="500"
       x="193.633"
       y="288.36218" />
    <g
       id="g4573"
       transform="matrix(0.84770822,0,0,0.84770822,801.43478,88.043198)">
      <path
         id="path4444"
         d="m -425.4653,711.83885 c -1.94666,0 -3.87999,-0.51066 -5.58666,-1.49333 l -17.78263,-10.52798 c -2.65599,-1.48533 -1.36,-2.01066 -0.484,-2.31333 3.54133,-1.24 4.25999,-1.52 8.03999,-3.66666 0.39733,-0.22666 0.91733,-0.14666 1.32399,0.0933 l 13.66131,8.10666 c 0.49334,0.26666 1.19333,0.26666 1.65067,0 l 53.26657,-30.74661 c 0.49333,-0.28 0.81333,-0.85334 0.81333,-1.44 v -61.46656 c 0,-0.61333 -0.32,-1.15999 -0.824,-1.46666 l -53.24524,-30.71995 c -0.49333,-0.29334 -1.14666,-0.29334 -1.63999,0 l -53.23457,30.71995 c -0.516,0.29333 -0.844,0.86667 -0.844,1.45333 v 61.46656 c 0,0.58666 0.32,1.14666 0.82666,1.42666 l 14.58664,8.42665 c 7.91999,3.95999 12.75998,-0.70666 12.75998,-5.39999 v -60.66656 c 0,-0.86666 0.68,-1.53333 1.54666,-1.53333 h 6.74666 c 0.84,0 1.53333,0.66667 1.53333,1.53333 v 60.69323 c 0,10.55998 -5.75999,16.62663 -15.77331,16.62663 -3.07999,0 -5.50665,0 -12.27997,-3.33332 l -13.97331,-8.05332 c -3.45333,-2 -5.58666,-5.73333 -5.58666,-9.71998 v -61.46656 c 0,-3.99999 2.13333,-7.73332 5.58666,-9.70666 l 53.3199,-30.75994 c 3.37333,-1.90666 7.85332,-1.90666 11.19998,0 l 53.25324,30.77328 c 3.43999,1.98667 5.58665,5.70666 5.58665,9.70665 v 61.46656 c 0,3.98666 -2.14666,7.70665 -5.58665,9.70665 l -53.25324,30.75994 c -1.70666,0.98667 -3.63999,1.49333 -5.61332,1.49333"
         inkscape:connector-curvature="0"
         style="fill:#689f63" />
      <path
         id="path4446"
         d="m -409.012,669.48426 c -23.30662,0 -28.19328,-10.69864 -28.19328,-19.67196 0,-0.85333 0.688,-1.53333 1.54267,-1.53333 h 6.87998 c 0.76,0 1.4,0.55333 1.52,1.304 1.04,7.01065 4.13333,10.54664 18.22663,10.54664 11.22665,0 15.99998,-2.53599 15.99998,-8.48931 0,-3.42667 -1.36,-5.97333 -18.79997,-7.67999 -14.58664,-1.44 -23.59996,-4.65333 -23.59996,-16.31997 0,-10.74665 9.06665,-17.14664 24.25329,-17.14664 17.0533,0 25.50662,5.91999 26.57329,18.63997 0.04,0.44 -0.12,0.86666 -0.41334,1.18666 -0.29333,0.30667 -0.70666,0.49334 -1.13333,0.49334 h -6.91998 c -0.72,0 -1.34667,-0.50667 -1.49334,-1.2 -1.66666,-7.37332 -5.69332,-9.73332 -16.63996,-9.73332 -12.25332,0 -13.67998,4.26666 -13.67998,7.46666 0,3.87999 1.68,5.01332 18.2133,7.19998 16.3733,2.17333 24.14662,5.23999 24.14662,16.74664 0,11.59998 -9.67998,18.2533 -26.55995,18.2533 m 64.87988,-65.18655 h 1.78667 c 1.46666,0 1.74666,-1.02666 1.74666,-1.62666 0,-1.57333 -1.08,-1.57333 -1.68,-1.57333 h -1.83999 z m -2.17333,-5.04 h 3.96 c 1.35999,0 4.02666,0 4.02666,3.04001 0,2.11999 -1.36,2.55999 -2.17333,2.82666 1.58666,0.10666 1.69333,1.14666 1.90666,2.61333 0.10667,0.91999 0.28,2.50666 0.6,3.03999 h -2.44 c -0.0667,-0.53333 -0.44,-3.46666 -0.44,-3.62666 -0.16,-0.65333 -0.38666,-0.97333 -1.19999,-0.97333 h -2.01333 v 4.61332 h -2.22667 z m -4.75999,5.73333 c 0,4.77333 3.85333,8.63999 8.58665,8.63999 4.77333,0 8.62665,-3.94666 8.62665,-8.63999 0,-4.78666 -3.90666,-8.58666 -8.63998,-8.58666 -4.66666,0 -8.58665,3.74666 -8.58665,8.57333 m 18.87996,0.04 c 0,5.65332 -4.62665,10.26665 -10.26664,10.26665 -5.59999,0 -10.26665,-4.55999 -10.26665,-10.26665 0,-5.81333 4.77332,-10.26666 10.26665,-10.26666 5.53332,0 10.25331,4.46666 10.25331,10.26666"
         inkscape:connector-curvature="0"
         style="fill:#689f63" />
      <path
         id="path4448"
         d="m -590.413,471.33261 c 0,-2.45332 -1.29333,-4.70665 -3.41066,-5.92665 l -56.47457,-32.49327 c -0.95333,-0.56 -2.02132,-0.85334 -3.10399,-0.89334 h -0.584 c -1.08266,0.04 -2.15066,0.33334 -3.11999,0.89334 l -56.4719,32.49327 c -2.104,1.22666 -3.41599,3.47999 -3.41599,5.93332 l 0.12399,87.51984 c 0,1.21333 0.62667,2.34666 1.69334,2.94666 1.03999,0.64 2.34666,0.64 3.38666,0 l 33.57327,-19.22663 c 2.11999,-1.26133 3.41333,-3.49066 3.41333,-5.91999 v -40.88659 c 0,-2.44 1.29333,-4.69332 3.40666,-5.90666 l 14.2933,-8.23198 c 1.06134,-0.61333 2.22667,-0.91733 3.41333,-0.91733 1.168,0 2.36,0.30133 3.39199,0.916 l 14.28665,8.22931 c 2.11466,1.21334 3.41332,3.46666 3.41332,5.90666 v 40.88393 c 0,2.42666 1.31067,4.66665 3.42,5.91998 l 33.55194,19.2133 c 1.05333,0.62667 2.36399,0.62667 3.41333,0 1.03466,-0.6 1.69066,-1.73333 1.69066,-2.94666 z m 266.49018,45.56792 c 0,0.60933 -0.324,1.17333 -0.85333,1.47467 l -19.3973,11.18131 c -0.52666,0.30266 -1.17733,0.30266 -1.70266,0 l -19.39997,-11.18131 c -0.53333,-0.30267 -0.85333,-0.86667 -0.85333,-1.47467 v -22.39462 c 0,-0.61067 0.32,-1.17334 0.84,-1.48 l 19.38663,-11.19998 c 0.53334,-0.30667 1.18667,-0.30667 1.72,0 l 19.39996,11.19998 c 0.53334,0.30666 0.85334,0.86933 0.85334,1.48 z m 5.23999,-165.86903 c -1.05866,-0.58933 -2.34666,-0.57333 -3.39199,0.036 -1.04,0.61333 -1.68266,1.73333 -1.68266,2.94666 v 86.66651 c 0,0.85333 -0.45334,1.64 -1.192,2.06666 -0.73333,0.42667 -1.64667,0.42667 -2.38666,0 l -14.14665,-8.14798 c -2.10666,-1.21866 -4.70132,-1.21866 -6.81598,0 l -56.49323,32.60394 c -2.11067,1.21333 -3.41333,3.46666 -3.41333,5.89332 v 65.22655 c 0,2.43999 1.30266,4.67999 3.41333,5.90665 l 56.49323,32.62661 c 2.10933,1.21333 4.70666,1.21333 6.82265,0 l 56.49323,-32.63994 c 2.10666,-1.22666 3.41333,-3.46666 3.41333,-5.90665 V 375.75012 c 0,-2.47466 -1.34667,-4.75066 -3.50666,-5.95999 z m 188.12367,142.88507 c 2.09866,-1.21866 3.39066,-3.46932 3.39066,-5.89599 v -15.80797 c 0,-2.43199 -1.29333,-4.67599 -3.39599,-5.89999 l -56.13323,-32.5866 c -2.12,-1.22667 -4.72,-1.22667 -6.83999,0 l -56.47991,32.59994 c -2.12,1.22666 -3.41333,3.46666 -3.41333,5.90665 v 65.19988 c 0,2.45333 1.32,4.72 3.44,5.93333 l 56.11991,31.9866 c 2.06666,1.18667 4.59999,1.2 6.69332,0.04 l 33.9466,-18.86663 c 1.06667,-0.6 1.74666,-1.73333 1.74666,-2.95999 0,-1.22667 -0.65333,-2.37333 -1.71999,-2.97333 l -56.82657,-32.61327 c -1.06666,-0.6 -1.71999,-1.73333 -1.71999,-2.94667 v -20.45329 c 0,-1.22133 0.64,-2.34666 1.70666,-2.95466 l 17.67997,-10.19998 c 1.05333,-0.61334 2.34666,-0.61334 3.39999,0 l 17.6933,10.19998 c 1.05334,0.6 1.70667,1.73333 1.70667,2.94666 v 16.07997 c 0,1.21333 0.65333,2.34666 1.70666,2.95999 1.05333,0.6 2.36,0.6 3.41333,-0.0133 z m 0,0"
         inkscape:connector-curvature="0"
         style="fill:#333333;fill-rule:evenodd" />
      <path
         id="path4450"
         d="m -190.94438,490.86591 c 0.4,-0.236 0.90133,-0.236 1.30666,0 l 10.83998,6.25332 c 0.40533,0.23467 0.65333,0.66667 0.65333,1.13334 v 12.51997 c 0,0.46667 -0.248,0.89867 -0.65333,1.13333 l -10.83998,6.25333 c -0.40533,0.236 -0.90666,0.236 -1.30666,0 l -10.83332,-6.25333 c -0.41333,-0.23466 -0.66666,-0.66666 -0.66666,-1.13333 v -12.51997 c 0,-0.46667 0.24,-0.89867 0.65333,-1.13334 z m 0,0"
         inkscape:connector-curvature="0"
         style="fill:#689f63;fill-rule:evenodd" />
      <g
         id="g4452"
         transform="matrix(1.3333309,0,0,1.3333309,-821.40192,131.91189)"
         clip-path="url(#a)">
        <path
           id="path4454"
           d="m 331.363,246.793 -118.715,-58.19 -60.87,124.174 118.712,58.193 z m 0,0"
           inkscape:connector-curvature="0"
           style="fill:url(#linearGradient4585)" />
      </g>
      <g
         id="g4456"
         transform="matrix(1.3333309,0,0,1.3333309,-821.40192,131.91189)"
         clip-path="url(#c)">
        <path
           id="path4458"
           d="m 144.07,264.004 83.825,113.453 110.86,-81.906 -83.83,-113.45 z m 0,0"
           inkscape:connector-curvature="0"
           style="fill:url(#linearGradient4587)" />
      </g>
      <g
         id="g4460"
         transform="matrix(1.3333309,0,0,1.3333309,-821.40192,131.91189)"
         clip-path="url(#e)">
        <path
           id="path4462"
           d="m 197.02,225.934 v 107.43 h 91.683 v -107.43 z m 0,0"
           inkscape:connector-curvature="0"
           style="fill:url(#linearGradient4589)" />
      </g>
    </g>
  </g>
</svg>
